<?xml version="1.0" encoding="UTF-8" ?>
<svg width="1280" height="720" viewBox="0.0 0.0 1280 720" xmlns="http://www.w3.org/2000/svg">
<style>
.small { font: italic 10px sans-serif; }
.large { font: italic 16px sans-serif; }
</style>
<rect x="0.00000" y="0.00000" width="1280.00000" height="720.00000" fill="#FFFFFF" stroke-width="1.00000" stroke="#FFFFFF" />
<rect x="224.00000" y="54.00000" width="960.00000" height="540.00000" fill="none" stroke-width="1.00000" stroke="#000000" />
<line x1="704.00000" y1="594.00000" x2="704.00000" y2="54.00000" stroke-width="1.50000" stroke="#000077" />
<line x1="224.00000" y1="507.60000" x2="1184.00000" y2="507.60000" stroke-width="1.50000" stroke="#000077" />
<line x1="224.00000" y1="594.00000" x2="224.00000" y2="54.00000" stroke-width="0.25000" stroke="#0000AA" />
<text x="214.00000" y="619.00000" class="small" >-5.00000</text>
<line x1="320.00000" y1="594.00000" x2="320.00000" y2="54.00000" stroke-width="0.25000" stroke="#0000AA" />
<text x="310.00000" y="619.00000" class="small" >-4.00000</text>
<line x1="416.00000" y1="594.00000" x2="416.00000" y2="54.00000" stroke-width="0.25000" stroke="#0000AA" />
<text x="406.00000" y="619.00000" class="small" >-3.00000</text>
<line x1="512.00000" y1="594.00000" x2="512.00000" y2="54.00000" stroke-width="0.25000" stroke="#0000AA" />
<text x="502.00000" y="619.00000" class="small" >-2.00000</text>
<line x1="608.00000" y1="594.00000" x2="608.00000" y2="54.00000" stroke-width="0.25000" stroke="#0000AA" />
<text x="598.00000" y="619.00000" class="small" >-1.00000</text>
<line x1="704.00000" y1="594.00000" x2="704.00000" y2="54.00000" stroke-width="0.25000" stroke="#0000AA" />
<text x="694.00000" y="619.00000" class="small" >0.00000</text>
<line x1="800.00000" y1="594.00000" x2="800.00000" y2="54.00000" stroke-width="0.25000" stroke="#0000AA" />
<text x="790.00000" y="619.00000" class="small" >1.00000</text>
<line x1="896.00000" y1="594.00000" x2="896.00000" y2="54.00000" stroke-width="0.25000" stroke="#0000AA" />
<text x="886.00000" y="619.00000" class="small" >2.00000</text>
<line x1="992.00000" y1="594.00000" x2="992.00000" y2="54.00000" stroke-width="0.25000" stroke="#0000AA" />
<text x="982.00000" y="619.00000" class="small" >3.00000</text>
<line x1="1088.00000" y1="594.00000" x2="1088.00000" y2="54.00000" stroke-width="0.25000" stroke="#0000AA" />
<text x="1078.00000" y="619.00000" class="small" >4.00000</text>
<line x1="1184.00000" y1="594.00000" x2="1184.00000" y2="54.00000" stroke-width="0.25000" stroke="#0000AA" />
<text x="1174.00000" y="619.00000" class="small" >5.00000</text>
<line x1="224.00000" y1="572.40000" x2="1184.00000" y2="572.40000" stroke-width="0.25000" stroke="#0000AA" />
<text x="164.00000" y="577.40000" class="small" >-3.00000</text>
<line x1="224.00000" y1="507.60000" x2="1184.00000" y2="507.60000" stroke-width="0.25000" stroke="#0000AA" />
<text x="164.00000" y="512.60000" class="small" >0.00000</text>
<line x1="224.00000" y1="442.80000" x2="1184.00000" y2="442.80000" stroke-width="0.25000" stroke="#0000AA" />
<text x="164.00000" y="447.80000" class="small" >3.00000</text>
<line x1="224.00000" y1="378.00000" x2="1184.00000" y2="378.00000" stroke-width="0.25000" stroke="#0000AA" />
<text x="164.00000" y="383.00000" class="small" >6.00000</text>
<line x1="224.00000" y1="313.20000" x2="1184.00000" y2="313.20000" stroke-width="0.25000" stroke="#0000AA" />
<text x="164.00000" y="318.20000" class="small" >9.00000</text>
<line x1="224.00000" y1="248.40000" x2="1184.00000" y2="248.40000" stroke-width="0.25000" stroke="#0000AA" />
<text x="164.00000" y="253.40000" class="small" >12.00000</text>
<line x1="224.00000" y1="183.60000" x2="1184.00000" y2="183.60000" stroke-width="0.25000" stroke="#0000AA" />
<text x="164.00000" y="188.60000" class="small" >15.00000</text>
<line x1="224.00000" y1="118.80000" x2="1184.00000" y2="118.80000" stroke-width="0.25000" stroke="#0000AA" />
<text x="164.00000" y="123.80000" class="small" >18.00000</text>
<line x1="224.00000" y1="54.00000" x2="1184.00000" y2="54.00000" stroke-width="0.25000" stroke="#0000AA" />
<text x="164.00000" y="59.00000" class="small" >21.00000</text>
<polyline points="
                                                                                                                                
224.00000,54.00000 225.92000,58.31136
225.92000,58.31136 227.84000,62.60544
227.84000,62.60544 229.76000,66.88224
229.76000,66.88224 231.68000,71.14176
231.68000,71.14176 233.60000,75.38400
233.60000,75.38400 235.52000,79.60896
235.52000,79.60896 237.44000,83.81664
237.44000,83.81664 239.36000,88.00704
239.36000,88.00704 241.28000,92.18016
241.28000,92.18016 243.20000,96.33600
243.20000,96.33600 245.12000,100.47456
245.12000,100.47456 247.04000,104.59584
247.04000,104.59584 248.96000,108.69984
248.96000,108.69984 250.88000,112.78656
250.88000,112.78656 252.80000,116.85600
252.80000,116.85600 254.72000,120.90816
254.72000,120.90816 256.64000,124.94304
256.64000,124.94304 258.56000,128.96064
258.56000,128.96064 260.48000,132.96096
260.48000,132.96096 262.40000,136.94400
262.40000,136.94400 264.32000,140.90976
264.32000,140.90976 266.24000,144.85824
266.24000,144.85824 268.16000,148.78944
268.16000,148.78944 270.08000,152.70336
270.08000,152.70336 272.00000,156.60000
272.00000,156.60000 273.92000,160.47936
273.92000,160.47936 275.84000,164.34144
275.84000,164.34144 277.76000,168.18624
277.76000,168.18624 279.68000,172.01376
279.68000,172.01376 281.60000,175.82400
281.60000,175.82400 283.52000,179.61696
283.52000,179.61696 285.44000,183.39264
285.44000,183.39264 287.36000,187.15104
287.36000,187.15104 289.28000,190.89216
289.28000,190.89216 291.20000,194.61600
291.20000,194.61600 293.12000,198.32256
293.12000,198.32256 295.04000,202.01184
295.04000,202.01184 296.96000,205.68384
296.96000,205.68384 298.88000,209.33856
298.88000,209.33856 300.80000,212.97600
300.80000,212.97600 302.72000,216.59616
302.72000,216.59616 304.64000,220.19904
304.64000,220.19904 306.56000,223.78464
306.56000,223.78464 308.48000,227.35296
308.48000,227.35296 310.40000,230.90400
310.40000,230.90400 312.32000,234.43776
312.32000,234.43776 314.24000,237.95424
314.24000,237.95424 316.16000,241.45344
316.16000,241.45344 318.08000,244.93536
318.08000,244.93536 320.00000,248.40000
320.00000,248.40000 321.92000,251.84736
321.92000,251.84736 323.84000,255.27744
323.84000,255.27744 325.76000,258.69024
325.76000,258.69024 327.68000,262.08576
327.68000,262.08576 329.60000,265.46400
329.60000,265.46400 331.52000,268.82496
331.52000,268.82496 333.44000,272.16864
333.44000,272.16864 335.36000,275.49504
335.36000,275.49504 337.28000,278.80416
337.28000,278.80416 339.20000,282.09600
339.20000,282.09600 341.12000,285.37056
341.12000,285.37056 343.04000,288.62784
343.04000,288.62784 344.96000,291.86784
344.96000,291.86784 346.88000,295.09056
346.88000,295.09056 348.80000,298.29600
348.80000,298.29600 350.72000,301.48416
350.72000,301.48416 352.64000,304.65504
352.64000,304.65504 354.56000,307.80864
354.56000,307.80864 356.48000,310.94496
356.48000,310.94496 358.40000,314.06400
358.40000,314.06400 360.32000,317.16576
360.32000,317.16576 362.24000,320.25024
362.24000,320.25024 364.16000,323.31744
364.16000,323.31744 366.08000,326.36736
366.08000,326.36736 368.00000,329.40000
368.00000,329.40000 369.92000,332.41536
369.92000,332.41536 371.84000,335.41344
371.84000,335.41344 373.76000,338.39424
373.76000,338.39424 375.68000,341.35776
375.68000,341.35776 377.60000,344.30400
377.60000,344.30400 379.52000,347.23296
379.52000,347.23296 381.44000,350.14464
381.44000,350.14464 383.36000,353.03904
383.36000,353.03904 385.28000,355.91616
385.28000,355.91616 387.20000,358.77600
387.20000,358.77600 389.12000,361.61856
389.12000,361.61856 391.04000,364.44384
391.04000,364.44384 392.96000,367.25184
392.96000,367.25184 394.88000,370.04256
394.88000,370.04256 396.80000,372.81600
396.80000,372.81600 398.72000,375.57216
398.72000,375.57216 400.64000,378.31104
400.64000,378.31104 402.56000,381.03264
402.56000,381.03264 404.48000,383.73696
404.48000,383.73696 406.40000,386.42400
406.40000,386.42400 408.32000,389.09376
408.32000,389.09376 410.24000,391.74624
410.24000,391.74624 412.16000,394.38144
412.16000,394.38144 414.08000,396.99936
414.08000,396.99936 416.00000,399.60000
416.00000,399.60000 417.92000,402.18336
417.92000,402.18336 419.84000,404.74944
419.84000,404.74944 421.76000,407.29824
421.76000,407.29824 423.68000,409.82976
423.68000,409.82976 425.60000,412.34400
425.60000,412.34400 427.52000,414.84096
427.52000,414.84096 429.44000,417.32064
429.44000,417.32064 431.36000,419.78304
431.36000,419.78304 433.28000,422.22816
433.28000,422.22816 435.20000,424.65600
435.20000,424.65600 437.12000,427.06656
437.12000,427.06656 439.04000,429.45984
439.04000,429.45984 440.96000,431.83584
440.96000,431.83584 442.88000,434.19456
442.88000,434.19456 444.80000,436.53600
444.80000,436.53600 446.72000,438.86016
446.72000,438.86016 448.64000,441.16704
448.64000,441.16704 450.56000,443.45664
450.56000,443.45664 452.48000,445.72896
452.48000,445.72896 454.40000,447.98400
454.40000,447.98400 456.32000,450.22176
456.32000,450.22176 458.24000,452.44224
458.24000,452.44224 460.16000,454.64544
460.16000,454.64544 462.08000,456.83136
462.08000,456.83136 464.00000,459.00000
464.00000,459.00000 465.92000,461.15136
465.92000,461.15136 467.84000,463.28544
467.84000,463.28544 469.76000,465.40224
469.76000,465.40224 471.68000,467.50176
471.68000,467.50176 473.60000,469.58400
473.60000,469.58400 475.52000,471.64896
475.52000,471.64896 477.44000,473.69664
477.44000,473.69664 479.36000,475.72704
479.36000,475.72704 481.28000,477.74016
481.28000,477.74016 483.20000,479.73600
483.20000,479.73600 485.12000,481.71456
485.12000,481.71456 487.04000,483.67584
487.04000,483.67584 488.96000,485.61984
488.96000,485.61984 490.88000,487.54656
490.88000,487.54656 492.80000,489.45600
492.80000,489.45600 494.72000,491.34816
494.72000,491.34816 496.64000,493.22304
496.64000,493.22304 498.56000,495.08064
498.56000,495.08064 500.48000,496.92096
500.48000,496.92096 502.40000,498.74400
502.40000,498.74400 504.32000,500.54976
504.32000,500.54976 506.24000,502.33824
506.24000,502.33824 508.16000,504.10944
508.16000,504.10944 510.08000,505.86336
510.08000,505.86336 512.00000,507.60000
512.00000,507.60000 513.92000,509.31936
513.92000,509.31936 515.84000,511.02144
515.84000,511.02144 517.76000,512.70624
517.76000,512.70624 519.68000,514.37376
519.68000,514.37376 521.60000,516.02400
521.60000,516.02400 523.52000,517.65696
523.52000,517.65696 525.44000,519.27264
525.44000,519.27264 527.36000,520.87104
527.36000,520.87104 529.28000,522.45216
529.28000,522.45216 531.20000,524.01600
531.20000,524.01600 533.12000,525.56256
533.12000,525.56256 535.04000,527.09184
535.04000,527.09184 536.96000,528.60384
536.96000,528.60384 538.88000,530.09856
538.88000,530.09856 540.80000,531.57600
540.80000,531.57600 542.72000,533.03616
542.72000,533.03616 544.64000,534.47904
544.64000,534.47904 546.56000,535.90464
546.56000,535.90464 548.48000,537.31296
548.48000,537.31296 550.40000,538.70400
550.40000,538.70400 552.32000,540.07776
552.32000,540.07776 554.24000,541.43424
554.24000,541.43424 556.16000,542.77344
556.16000,542.77344 558.08000,544.09536
558.08000,544.09536 560.00000,545.40000
560.00000,545.40000 561.92000,546.68736
561.92000,546.68736 563.84000,547.95744
563.84000,547.95744 565.76000,549.21024
565.76000,549.21024 567.68000,550.44576
567.68000,550.44576 569.60000,551.66400
569.60000,551.66400 571.52000,552.86496
571.52000,552.86496 573.44000,554.04864
573.44000,554.04864 575.36000,555.21504
575.36000,555.21504 577.28000,556.36416
577.28000,556.36416 579.20000,557.49600
579.20000,557.49600 581.12000,558.61056
581.12000,558.61056 583.04000,559.70784
583.04000,559.70784 584.96000,560.78784
584.96000,560.78784 586.88000,561.85056
586.88000,561.85056 588.80000,562.89600
588.80000,562.89600 590.72000,563.92416
590.72000,563.92416 592.64000,564.93504
592.64000,564.93504 594.56000,565.92864
594.56000,565.92864 596.48000,566.90496
596.48000,566.90496 598.40000,567.86400
598.40000,567.86400 600.32000,568.80576
600.32000,568.80576 602.24000,569.73024
602.24000,569.73024 604.16000,570.63744
604.16000,570.63744 606.08000,571.52736
606.08000,571.52736 608.00000,572.40000
608.00000,572.40000 609.92000,573.25536
609.92000,573.25536 611.84000,574.09344
611.84000,574.09344 613.76000,574.91424
613.76000,574.91424 615.68000,575.71776
615.68000,575.71776 617.60000,576.50400
617.60000,576.50400 619.52000,577.27296
619.52000,577.27296 621.44000,578.02464
621.44000,578.02464 623.36000,578.75904
623.36000,578.75904 625.28000,579.47616
625.28000,579.47616 627.20000,580.17600
627.20000,580.17600 629.12000,580.85856
629.12000,580.85856 631.04000,581.52384
631.04000,581.52384 632.96000,582.17184
632.96000,582.17184 634.88000,582.80256
634.88000,582.80256 636.80000,583.41600
636.80000,583.41600 638.72000,584.01216
638.72000,584.01216 640.64000,584.59104
640.64000,584.59104 642.56000,585.15264
642.56000,585.15264 644.48000,585.69696
644.48000,585.69696 646.40000,586.22400
646.40000,586.22400 648.32000,586.73376
648.32000,586.73376 650.24000,587.22624
650.24000,587.22624 652.16000,587.70144
652.16000,587.70144 654.08000,588.15936
654.08000,588.15936 656.00000,588.60000
656.00000,588.60000 657.92000,589.02336
657.92000,589.02336 659.84000,589.42944
659.84000,589.42944 661.76000,589.81824
661.76000,589.81824 663.68000,590.18976
663.68000,590.18976 665.60000,590.54400
665.60000,590.54400 667.52000,590.88096
667.52000,590.88096 669.44000,591.20064
669.44000,591.20064 671.36000,591.50304
671.36000,591.50304 673.28000,591.78816
673.28000,591.78816 675.20000,592.05600
675.20000,592.05600 677.12000,592.30656
677.12000,592.30656 679.04000,592.53984
679.04000,592.53984 680.96000,592.75584
680.96000,592.75584 682.88000,592.95456
682.88000,592.95456 684.80000,593.13600
684.80000,593.13600 686.72000,593.30016
686.72000,593.30016 688.64000,593.44704
688.64000,593.44704 690.56000,593.57664
690.56000,593.57664 692.48000,593.68896
692.48000,593.68896 694.40000,593.78400
694.40000,593.78400 696.32000,593.86176
696.32000,593.86176 698.24000,593.92224
698.24000,593.92224 700.16000,593.96544
700.16000,593.96544 702.08000,593.99136
702.08000,593.99136 704.00000,594.00000
704.00000,594.00000 705.92000,593.99136
705.92000,593.99136 707.84000,593.96544
707.84000,593.96544 709.76000,593.92224
709.76000,593.92224 711.68000,593.86176
711.68000,593.86176 713.60000,593.78400
713.60000,593.78400 715.52000,593.68896
715.52000,593.68896 717.44000,593.57664
717.44000,593.57664 719.36000,593.44704
719.36000,593.44704 721.28000,593.30016
721.28000,593.30016 723.20000,593.13600
723.20000,593.13600 725.12000,592.95456
725.12000,592.95456 727.04000,592.75584
727.04000,592.75584 728.96000,592.53984
728.96000,592.53984 730.88000,592.30656
730.88000,592.30656 732.80000,592.05600
732.80000,592.05600 734.72000,591.78816
734.72000,591.78816 736.64000,591.50304
736.64000,591.50304 738.56000,591.20064
738.56000,591.20064 740.48000,590.88096
740.48000,590.88096 742.40000,590.54400
742.40000,590.54400 744.32000,590.18976
744.32000,590.18976 746.24000,589.81824
746.24000,589.81824 748.16000,589.42944
748.16000,589.42944 750.08000,589.02336
750.08000,589.02336 752.00000,588.60000
752.00000,588.60000 753.92000,588.15936
753.92000,588.15936 755.84000,587.70144
755.84000,587.70144 757.76000,587.22624
757.76000,587.22624 759.68000,586.73376
759.68000,586.73376 761.60000,586.22400
761.60000,586.22400 763.52000,585.69696
763.52000,585.69696 765.44000,585.15264
765.44000,585.15264 767.36000,584.59104
767.36000,584.59104 769.28000,584.01216
769.28000,584.01216 771.20000,583.41600
771.20000,583.41600 773.12000,582.80256
773.12000,582.80256 775.04000,582.17184
775.04000,582.17184 776.96000,581.52384
776.96000,581.52384 778.88000,580.85856
778.88000,580.85856 780.80000,580.17600
780.80000,580.17600 782.72000,579.47616
782.72000,579.47616 784.64000,578.75904
784.64000,578.75904 786.56000,578.02464
786.56000,578.02464 788.48000,577.27296
788.48000,577.27296 790.40000,576.50400
790.40000,576.50400 792.32000,575.71776
792.32000,575.71776 794.24000,574.91424
794.24000,574.91424 796.16000,574.09344
796.16000,574.09344 798.08000,573.25536
798.08000,573.25536 800.00000,572.40000
800.00000,572.40000 801.92000,571.52736
801.92000,571.52736 803.84000,570.63744
803.84000,570.63744 805.76000,569.73024
805.76000,569.73024 807.68000,568.80576
807.68000,568.80576 809.60000,567.86400
809.60000,567.86400 811.52000,566.90496
811.52000,566.90496 813.44000,565.92864
813.44000,565.92864 815.36000,564.93504
815.36000,564.93504 817.28000,563.92416
817.28000,563.92416 819.20000,562.89600
819.20000,562.89600 821.12000,561.85056
821.12000,561.85056 823.04000,560.78784
823.04000,560.78784 824.96000,559.70784
824.96000,559.70784 826.88000,558.61056
826.88000,558.61056 828.80000,557.49600
828.80000,557.49600 830.72000,556.36416
830.72000,556.36416 832.64000,555.21504
832.64000,555.21504 834.56000,554.04864
834.56000,554.04864 836.48000,552.86496
836.48000,552.86496 838.40000,551.66400
838.40000,551.66400 840.32000,550.44576
840.32000,550.44576 842.24000,549.21024
842.24000,549.21024 844.16000,547.95744
844.16000,547.95744 846.08000,546.68736
846.08000,546.68736 848.00000,545.40000
848.00000,545.40000 849.92000,544.09536
849.92000,544.09536 851.84000,542.77344
851.84000,542.77344 853.76000,541.43424
853.76000,541.43424 855.68000,540.07776
855.68000,540.07776 857.60000,538.70400
857.60000,538.70400 859.52000,537.31296
859.52000,537.31296 861.44000,535.90464
861.44000,535.90464 863.36000,534.47904
863.36000,534.47904 865.28000,533.03616
865.28000,533.03616 867.20000,531.57600
867.20000,531.57600 869.12000,530.09856
869.12000,530.09856 871.04000,528.60384
871.04000,528.60384 872.96000,527.09184
872.96000,527.09184 874.88000,525.56256
874.88000,525.56256 876.80000,524.01600
876.80000,524.01600 878.72000,522.45216
878.72000,522.45216 880.64000,520.87104
880.64000,520.87104 882.56000,519.27264
882.56000,519.27264 884.48000,517.65696
884.48000,517.65696 886.40000,516.02400
886.40000,516.02400 888.32000,514.37376
888.32000,514.37376 890.24000,512.70624
890.24000,512.70624 892.16000,511.02144
892.16000,511.02144 894.08000,509.31936
894.08000,509.31936 896.00000,507.60000
896.00000,507.60000 897.92000,505.86336
897.92000,505.86336 899.84000,504.10944
899.84000,504.10944 901.76000,502.33824
901.76000,502.33824 903.68000,500.54976
903.68000,500.54976 905.60000,498.74400
905.60000,498.74400 907.52000,496.92096
907.52000,496.92096 909.44000,495.08064
909.44000,495.08064 911.36000,493.22304
911.36000,493.22304 913.28000,491.34816
913.28000,491.34816 915.20000,489.45600
915.20000,489.45600 917.12000,487.54656
917.12000,487.54656 919.04000,485.61984
919.04000,485.61984 920.96000,483.67584
920.96000,483.67584 922.88000,481.71456
922.88000,481.71456 924.80000,479.73600
924.80000,479.73600 926.72000,477.74016
926.72000,477.74016 928.64000,475.72704
928.64000,475.72704 930.56000,473.69664
930.56000,473.69664 932.48000,471.64896
932.48000,471.64896 934.40000,469.58400
934.40000,469.58400 936.32000,467.50176
936.32000,467.50176 938.24000,465.40224
938.24000,465.40224 940.16000,463.28544
940.16000,463.28544 942.08000,461.15136
942.08000,461.15136 944.00000,459.00000
944.00000,459.00000 945.92000,456.83136
945.92000,456.83136 947.84000,454.64544
947.84000,454.64544 949.76000,452.44224
949.76000,452.44224 951.68000,450.22176
951.68000,450.22176 953.60000,447.98400
953.60000,447.98400 955.52000,445.72896
955.52000,445.72896 957.44000,443.45664
957.44000,443.45664 959.36000,441.16704
959.36000,441.16704 961.28000,438.86016
961.28000,438.86016 963.20000,436.53600
963.20000,436.53600 965.12000,434.19456
965.12000,434.19456 967.04000,431.83584
967.04000,431.83584 968.96000,429.45984
968.96000,429.45984 970.88000,427.06656
970.88000,427.06656 972.80000,424.65600
972.80000,424.65600 974.72000,422.22816
974.72000,422.22816 976.64000,419.78304
976.64000,419.78304 978.56000,417.32064
978.56000,417.32064 980.48000,414.84096
980.48000,414.84096 982.40000,412.34400
982.40000,412.34400 984.32000,409.82976
984.32000,409.82976 986.24000,407.29824
986.24000,407.29824 988.16000,404.74944
988.16000,404.74944 990.08000,402.18336
990.08000,402.18336 992.00000,399.60000
992.00000,399.60000 993.92000,396.99936
993.92000,396.99936 995.84000,394.38144
995.84000,394.38144 997.76000,391.74624
997.76000,391.74624 999.68000,389.09376
999.68000,389.09376 1001.60000,386.42400
1001.60000,386.42400 1003.52000,383.73696
1003.52000,383.73696 1005.44000,381.03264
1005.44000,381.03264 1007.36000,378.31104
1007.36000,378.31104 1009.28000,375.57216
1009.28000,375.57216 1011.20000,372.81600
1011.20000,372.81600 1013.12000,370.04256
1013.12000,370.04256 1015.04000,367.25184
1015.04000,367.25184 1016.96000,364.44384
1016.96000,364.44384 1018.88000,361.61856
1018.88000,361.61856 1020.80000,358.77600
1020.80000,358.77600 1022.72000,355.91616
1022.72000,355.91616 1024.64000,353.03904
1024.64000,353.03904 1026.56000,350.14464
1026.56000,350.14464 1028.48000,347.23296
1028.48000,347.23296 1030.40000,344.30400
1030.40000,344.30400 1032.32000,341.35776
1032.32000,341.35776 1034.24000,338.39424
1034.24000,338.39424 1036.16000,335.41344
1036.16000,335.41344 1038.08000,332.41536
1038.08000,332.41536 1040.00000,329.40000
1040.00000,329.40000 1041.92000,326.36736
1041.92000,326.36736 1043.84000,323.31744
1043.84000,323.31744 1045.76000,320.25024
1045.76000,320.25024 1047.68000,317.16576
1047.68000,317.16576 1049.60000,314.06400
1049.60000,314.06400 1051.52000,310.94496
1051.52000,310.94496 1053.44000,307.80864
1053.44000,307.80864 1055.36000,304.65504
1055.36000,304.65504 1057.28000,301.48416
1057.28000,301.48416 1059.20000,298.29600
1059.20000,298.29600 1061.12000,295.09056
1061.12000,295.09056 1063.04000,291.86784
1063.04000,291.86784 1064.96000,288.62784
1064.96000,288.62784 1066.88000,285.37056
1066.88000,285.37056 1068.80000,282.09600
1068.80000,282.09600 1070.72000,278.80416
1070.72000,278.80416 1072.64000,275.49504
1072.64000,275.49504 1074.56000,272.16864
1074.56000,272.16864 1076.48000,268.82496
1076.48000,268.82496 1078.40000,265.46400
1078.40000,265.46400 1080.32000,262.08576
1080.32000,262.08576 1082.24000,258.69024
1082.24000,258.69024 1084.16000,255.27744
1084.16000,255.27744 1086.08000,251.84736
1086.08000,251.84736 1088.00000,248.40000
1088.00000,248.40000 1089.92000,244.93536
1089.92000,244.93536 1091.84000,241.45344
1091.84000,241.45344 1093.76000,237.95424
1093.76000,237.95424 1095.68000,234.43776
1095.68000,234.43776 1097.60000,230.90400
1097.60000,230.90400 1099.52000,227.35296
1099.52000,227.35296 1101.44000,223.78464
1101.44000,223.78464 1103.36000,220.19904
1103.36000,220.19904 1105.28000,216.59616
1105.28000,216.59616 1107.20000,212.97600
1107.20000,212.97600 1109.12000,209.33856
1109.12000,209.33856 1111.04000,205.68384
1111.04000,205.68384 1112.96000,202.01184
1112.96000,202.01184 1114.88000,198.32256
1114.88000,198.32256 1116.80000,194.61600
1116.80000,194.61600 1118.72000,190.89216
1118.72000,190.89216 1120.64000,187.15104
1120.64000,187.15104 1122.56000,183.39264
1122.56000,183.39264 1124.48000,179.61696
1124.48000,179.61696 1126.40000,175.82400
1126.40000,175.82400 1128.32000,172.01376
1128.32000,172.01376 1130.24000,168.18624
1130.24000,168.18624 1132.16000,164.34144
1132.16000,164.34144 1134.08000,160.47936
1134.08000,160.47936 1136.00000,156.60000
1136.00000,156.60000 1137.92000,152.70336
1137.92000,152.70336 1139.84000,148.78944
1139.84000,148.78944 1141.76000,144.85824
1141.76000,144.85824 1143.68000,140.90976
1143.68000,140.90976 1145.60000,136.94400
1145.60000,136.94400 1147.52000,132.96096
1147.52000,132.96096 1149.44000,128.96064
1149.44000,128.96064 1151.36000,124.94304
1151.36000,124.94304 1153.28000,120.90816
1153.28000,120.90816 1155.20000,116.85600
1155.20000,116.85600 1157.12000,112.78656
1157.12000,112.78656 1159.04000,108.69984
1159.04000,108.69984 1160.96000,104.59584
1160.96000,104.59584 1162.88000,100.47456
1162.88000,100.47456 1164.80000,96.33600
1164.80000,96.33600 1166.72000,92.18016
1166.72000,92.18016 1168.64000,88.00704
1168.64000,88.00704 1170.56000,83.81664
1170.56000,83.81664 1172.48000,79.60896
1172.48000,79.60896 1174.40000,75.38400
1174.40000,75.38400 1176.32000,71.14176
1176.32000,71.14176 1178.24000,66.88224
1178.24000,66.88224 1180.16000,62.60544
1180.16000,62.60544 1182.08000,58.31136
1182.08000,58.31136 1184.00000,54.00000
" stroke="#000010" stroke-width="1.00000" fill="none" />
</svg>
