<?xml version="1.0" encoding="UTF-8" ?>
<svg width="1280" height="720" viewBox="0.0 0.0 1280 720" xmlns="http://www.w3.org/2000/svg">
<style>
.small { font: italic 10px sans-serif; }
.large { font: italic 16px sans-serif; }
</style>
<rect x="0.00000" y="0.00000" width="1280.00000" height="720.00000" fill="#FFFFFF" stroke-width="1.00000" stroke="#FFFFFF" />
<polyline points="
                                                                                                                                
224.00000,36.00000 225.92000,39.59280
225.92000,39.59280 227.84000,43.17120
227.84000,43.17120 229.76000,46.73520
229.76000,46.73520 231.68000,50.28480
231.68000,50.28480 233.60000,53.82000
233.60000,53.82000 235.52000,57.34080
235.52000,57.34080 237.44000,60.84720
237.44000,60.84720 239.36000,64.33920
239.36000,64.33920 241.28000,67.81680
241.28000,67.81680 243.20000,71.28000
243.20000,71.28000 245.12000,74.72880
245.12000,74.72880 247.04000,78.16320
247.04000,78.16320 248.96000,81.58320
248.96000,81.58320 250.88000,84.98880
250.88000,84.98880 252.80000,88.38000
252.80000,88.38000 254.72000,91.75680
254.72000,91.75680 256.64000,95.11920
256.64000,95.11920 258.56000,98.46720
258.56000,98.46720 260.48000,101.80080
260.48000,101.80080 262.40000,105.12000
262.40000,105.12000 264.32000,108.42480
264.32000,108.42480 266.24000,111.71520
266.24000,111.71520 268.16000,114.99120
268.16000,114.99120 270.08000,118.25280
270.08000,118.25280 272.00000,121.50000
272.00000,121.50000 273.92000,124.73280
273.92000,124.73280 275.84000,127.95120
275.84000,127.95120 277.76000,131.15520
277.76000,131.15520 279.68000,134.34480
279.68000,134.34480 281.60000,137.52000
281.60000,137.52000 283.52000,140.68080
283.52000,140.68080 285.44000,143.82720
285.44000,143.82720 287.36000,146.95920
287.36000,146.95920 289.28000,150.07680
289.28000,150.07680 291.20000,153.18000
291.20000,153.18000 293.12000,156.26880
293.12000,156.26880 295.04000,159.34320
295.04000,159.34320 296.96000,162.40320
296.96000,162.40320 298.88000,165.44880
298.88000,165.44880 300.80000,168.48000
300.80000,168.48000 302.72000,171.49680
302.72000,171.49680 304.64000,174.49920
304.64000,174.49920 306.56000,177.48720
306.56000,177.48720 308.48000,180.46080
308.48000,180.46080 310.40000,183.42000
310.40000,183.42000 312.32000,186.36480
312.32000,186.36480 314.24000,189.29520
314.24000,189.29520 316.16000,192.21120
316.16000,192.21120 318.08000,195.11280
318.08000,195.11280 320.00000,198.00000
320.00000,198.00000 321.92000,200.87280
321.92000,200.87280 323.84000,203.73120
323.84000,203.73120 325.76000,206.57520
325.76000,206.57520 327.68000,209.40480
327.68000,209.40480 329.60000,212.22000
329.60000,212.22000 331.52000,215.02080
331.52000,215.02080 333.44000,217.80720
333.44000,217.80720 335.36000,220.57920
335.36000,220.57920 337.28000,223.33680
337.28000,223.33680 339.20000,226.08000
339.20000,226.08000 341.12000,228.80880
341.12000,228.80880 343.04000,231.52320
343.04000,231.52320 344.96000,234.22320
344.96000,234.22320 346.88000,236.90880
346.88000,236.90880 348.80000,239.58000
348.80000,239.58000 350.72000,242.23680
350.72000,242.23680 352.64000,244.87920
352.64000,244.87920 354.56000,247.50720
354.56000,247.50720 356.48000,250.12080
356.48000,250.12080 358.40000,252.72000
358.40000,252.72000 360.32000,255.30480
360.32000,255.30480 362.24000,257.87520
362.24000,257.87520 364.16000,260.43120
364.16000,260.43120 366.08000,262.97280
366.08000,262.97280 368.00000,265.50000
368.00000,265.50000 369.92000,268.01280
369.92000,268.01280 371.84000,270.51120
371.84000,270.51120 373.76000,272.99520
373.76000,272.99520 375.68000,275.46480
375.68000,275.46480 377.60000,277.92000
377.60000,277.92000 379.52000,280.36080
379.52000,280.36080 381.44000,282.78720
381.44000,282.78720 383.36000,285.19920
383.36000,285.19920 385.28000,287.59680
385.28000,287.59680 387.20000,289.98000
387.20000,289.98000 389.12000,292.34880
389.12000,292.34880 391.04000,294.70320
391.04000,294.70320 392.96000,297.04320
392.96000,297.04320 394.88000,299.36880
394.88000,299.36880 396.80000,301.68000
396.80000,301.68000 398.72000,303.97680
398.72000,303.97680 400.64000,306.25920
400.64000,306.25920 402.56000,308.52720
402.56000,308.52720 404.48000,310.78080
404.48000,310.78080 406.40000,313.02000
406.40000,313.02000 408.32000,315.24480
408.32000,315.24480 410.24000,317.45520
410.24000,317.45520 412.16000,319.65120
412.16000,319.65120 414.08000,321.83280
414.08000,321.83280 416.00000,324.00000
416.00000,324.00000 417.92000,326.15280
417.92000,326.15280 419.84000,328.29120
419.84000,328.29120 421.76000,330.41520
421.76000,330.41520 423.68000,332.52480
423.68000,332.52480 425.60000,334.62000
425.60000,334.62000 427.52000,336.70080
427.52000,336.70080 429.44000,338.76720
429.44000,338.76720 431.36000,340.81920
431.36000,340.81920 433.28000,342.85680
433.28000,342.85680 435.20000,344.88000
435.20000,344.88000 437.12000,346.88880
437.12000,346.88880 439.04000,348.88320
439.04000,348.88320 440.96000,350.86320
440.96000,350.86320 442.88000,352.82880
442.88000,352.82880 444.80000,354.78000
444.80000,354.78000 446.72000,356.71680
446.72000,356.71680 448.64000,358.63920
448.64000,358.63920 450.56000,360.54720
450.56000,360.54720 452.48000,362.44080
452.48000,362.44080 454.40000,364.32000
454.40000,364.32000 456.32000,366.18480
456.32000,366.18480 458.24000,368.03520
458.24000,368.03520 460.16000,369.87120
460.16000,369.87120 462.08000,371.69280
462.08000,371.69280 464.00000,373.50000
464.00000,373.50000 465.92000,375.29280
465.92000,375.29280 467.84000,377.07120
467.84000,377.07120 469.76000,378.83520
469.76000,378.83520 471.68000,380.58480
471.68000,380.58480 473.60000,382.32000
473.60000,382.32000 475.52000,384.04080
475.52000,384.04080 477.44000,385.74720
477.44000,385.74720 479.36000,387.43920
479.36000,387.43920 481.28000,389.11680
481.28000,389.11680 483.20000,390.78000
483.20000,390.78000 485.12000,392.42880
485.12000,392.42880 487.04000,394.06320
487.04000,394.06320 488.96000,395.68320
488.96000,395.68320 490.88000,397.28880
490.88000,397.28880 492.80000,398.88000
492.80000,398.88000 494.72000,400.45680
494.72000,400.45680 496.64000,402.01920
496.64000,402.01920 498.56000,403.56720
498.56000,403.56720 500.48000,405.10080
500.48000,405.10080 502.40000,406.62000
502.40000,406.62000 504.32000,408.12480
504.32000,408.12480 506.24000,409.61520
506.24000,409.61520 508.16000,411.09120
508.16000,411.09120 510.08000,412.55280
510.08000,412.55280 512.00000,414.00000
512.00000,414.00000 513.92000,415.43280
513.92000,415.43280 515.84000,416.85120
515.84000,416.85120 517.76000,418.25520
517.76000,418.25520 519.68000,419.64480
519.68000,419.64480 521.60000,421.02000
521.60000,421.02000 523.52000,422.38080
523.52000,422.38080 525.44000,423.72720
525.44000,423.72720 527.36000,425.05920
527.36000,425.05920 529.28000,426.37680
529.28000,426.37680 531.20000,427.68000
531.20000,427.68000 533.12000,428.96880
533.12000,428.96880 535.04000,430.24320
535.04000,430.24320 536.96000,431.50320
536.96000,431.50320 538.88000,432.74880
538.88000,432.74880 540.80000,433.98000
540.80000,433.98000 542.72000,435.19680
542.72000,435.19680 544.64000,436.39920
544.64000,436.39920 546.56000,437.58720
546.56000,437.58720 548.48000,438.76080
548.48000,438.76080 550.40000,439.92000
550.40000,439.92000 552.32000,441.06480
552.32000,441.06480 554.24000,442.19520
554.24000,442.19520 556.16000,443.31120
556.16000,443.31120 558.08000,444.41280
558.08000,444.41280 560.00000,445.50000
560.00000,445.50000 561.92000,446.57280
561.92000,446.57280 563.84000,447.63120
563.84000,447.63120 565.76000,448.67520
565.76000,448.67520 567.68000,449.70480
567.68000,449.70480 569.60000,450.72000
569.60000,450.72000 571.52000,451.72080
571.52000,451.72080 573.44000,452.70720
573.44000,452.70720 575.36000,453.67920
575.36000,453.67920 577.28000,454.63680
577.28000,454.63680 579.20000,455.58000
579.20000,455.58000 581.12000,456.50880
581.12000,456.50880 583.04000,457.42320
583.04000,457.42320 584.96000,458.32320
584.96000,458.32320 586.88000,459.20880
586.88000,459.20880 588.80000,460.08000
588.80000,460.08000 590.72000,460.93680
590.72000,460.93680 592.64000,461.77920
592.64000,461.77920 594.56000,462.60720
594.56000,462.60720 596.48000,463.42080
596.48000,463.42080 598.40000,464.22000
598.40000,464.22000 600.32000,465.00480
600.32000,465.00480 602.24000,465.77520
602.24000,465.77520 604.16000,466.53120
604.16000,466.53120 606.08000,467.27280
606.08000,467.27280 608.00000,468.00000
608.00000,468.00000 609.92000,468.71280
609.92000,468.71280 611.84000,469.41120
611.84000,469.41120 613.76000,470.09520
613.76000,470.09520 615.68000,470.76480
615.68000,470.76480 617.60000,471.42000
617.60000,471.42000 619.52000,472.06080
619.52000,472.06080 621.44000,472.68720
621.44000,472.68720 623.36000,473.29920
623.36000,473.29920 625.28000,473.89680
625.28000,473.89680 627.20000,474.48000
627.20000,474.48000 629.12000,475.04880
629.12000,475.04880 631.04000,475.60320
631.04000,475.60320 632.96000,476.14320
632.96000,476.14320 634.88000,476.66880
634.88000,476.66880 636.80000,477.18000
636.80000,477.18000 638.72000,477.67680
638.72000,477.67680 640.64000,478.15920
640.64000,478.15920 642.56000,478.62720
642.56000,478.62720 644.48000,479.08080
644.48000,479.08080 646.40000,479.52000
646.40000,479.52000 648.32000,479.94480
648.32000,479.94480 650.24000,480.35520
650.24000,480.35520 652.16000,480.75120
652.16000,480.75120 654.08000,481.13280
654.08000,481.13280 656.00000,481.50000
656.00000,481.50000 657.92000,481.85280
657.92000,481.85280 659.84000,482.19120
659.84000,482.19120 661.76000,482.51520
661.76000,482.51520 663.68000,482.82480
663.68000,482.82480 665.60000,483.12000
665.60000,483.12000 667.52000,483.40080
667.52000,483.40080 669.44000,483.66720
669.44000,483.66720 671.36000,483.91920
671.36000,483.91920 673.28000,484.15680
673.28000,484.15680 675.20000,484.38000
675.20000,484.38000 677.12000,484.58880
677.12000,484.58880 679.04000,484.78320
679.04000,484.78320 680.96000,484.96320
680.96000,484.96320 682.88000,485.12880
682.88000,485.12880 684.80000,485.28000
684.80000,485.28000 686.72000,485.41680
686.72000,485.41680 688.64000,485.53920
688.64000,485.53920 690.56000,485.64720
690.56000,485.64720 692.48000,485.74080
692.48000,485.74080 694.40000,485.82000
694.40000,485.82000 696.32000,485.88480
696.32000,485.88480 698.24000,485.93520
698.24000,485.93520 700.16000,485.97120
700.16000,485.97120 702.08000,485.99280
702.08000,485.99280 704.00000,486.00000
704.00000,486.00000 705.92000,485.99280
705.92000,485.99280 707.84000,485.97120
707.84000,485.97120 709.76000,485.93520
709.76000,485.93520 711.68000,485.88480
711.68000,485.88480 713.60000,485.82000
713.60000,485.82000 715.52000,485.74080
715.52000,485.74080 717.44000,485.64720
717.44000,485.64720 719.36000,485.53920
719.36000,485.53920 721.28000,485.41680
721.28000,485.41680 723.20000,485.28000
723.20000,485.28000 725.12000,485.12880
725.12000,485.12880 727.04000,484.96320
727.04000,484.96320 728.96000,484.78320
728.96000,484.78320 730.88000,484.58880
730.88000,484.58880 732.80000,484.38000
732.80000,484.38000 734.72000,484.15680
734.72000,484.15680 736.64000,483.91920
736.64000,483.91920 738.56000,483.66720
738.56000,483.66720 740.48000,483.40080
740.48000,483.40080 742.40000,483.12000
742.40000,483.12000 744.32000,482.82480
744.32000,482.82480 746.24000,482.51520
746.24000,482.51520 748.16000,482.19120
748.16000,482.19120 750.08000,481.85280
750.08000,481.85280 752.00000,481.50000
752.00000,481.50000 753.92000,481.13280
753.92000,481.13280 755.84000,480.75120
755.84000,480.75120 757.76000,480.35520
757.76000,480.35520 759.68000,479.94480
759.68000,479.94480 761.60000,479.52000
761.60000,479.52000 763.52000,479.08080
763.52000,479.08080 765.44000,478.62720
765.44000,478.62720 767.36000,478.15920
767.36000,478.15920 769.28000,477.67680
769.28000,477.67680 771.20000,477.18000
771.20000,477.18000 773.12000,476.66880
773.12000,476.66880 775.04000,476.14320
775.04000,476.14320 776.96000,475.60320
776.96000,475.60320 778.88000,475.04880
778.88000,475.04880 780.80000,474.48000
780.80000,474.48000 782.72000,473.89680
782.72000,473.89680 784.64000,473.29920
784.64000,473.29920 786.56000,472.68720
786.56000,472.68720 788.48000,472.06080
788.48000,472.06080 790.40000,471.42000
790.40000,471.42000 792.32000,470.76480
792.32000,470.76480 794.24000,470.09520
794.24000,470.09520 796.16000,469.41120
796.16000,469.41120 798.08000,468.71280
798.08000,468.71280 800.00000,468.00000
800.00000,468.00000 801.92000,467.27280
801.92000,467.27280 803.84000,466.53120
803.84000,466.53120 805.76000,465.77520
805.76000,465.77520 807.68000,465.00480
807.68000,465.00480 809.60000,464.22000
809.60000,464.22000 811.52000,463.42080
811.52000,463.42080 813.44000,462.60720
813.44000,462.60720 815.36000,461.77920
815.36000,461.77920 817.28000,460.93680
817.28000,460.93680 819.20000,460.08000
819.20000,460.08000 821.12000,459.20880
821.12000,459.20880 823.04000,458.32320
823.04000,458.32320 824.96000,457.42320
824.96000,457.42320 826.88000,456.50880
826.88000,456.50880 828.80000,455.58000
828.80000,455.58000 830.72000,454.63680
830.72000,454.63680 832.64000,453.67920
832.64000,453.67920 834.56000,452.70720
834.56000,452.70720 836.48000,451.72080
836.48000,451.72080 838.40000,450.72000
838.40000,450.72000 840.32000,449.70480
840.32000,449.70480 842.24000,448.67520
842.24000,448.67520 844.16000,447.63120
844.16000,447.63120 846.08000,446.57280
846.08000,446.57280 848.00000,445.50000
848.00000,445.50000 849.92000,444.41280
849.92000,444.41280 851.84000,443.31120
851.84000,443.31120 853.76000,442.19520
853.76000,442.19520 855.68000,441.06480
855.68000,441.06480 857.60000,439.92000
857.60000,439.92000 859.52000,438.76080
859.52000,438.76080 861.44000,437.58720
861.44000,437.58720 863.36000,436.39920
863.36000,436.39920 865.28000,435.19680
865.28000,435.19680 867.20000,433.98000
867.20000,433.98000 869.12000,432.74880
869.12000,432.74880 871.04000,431.50320
871.04000,431.50320 872.96000,430.24320
872.96000,430.24320 874.88000,428.96880
874.88000,428.96880 876.80000,427.68000
876.80000,427.68000 878.72000,426.37680
878.72000,426.37680 880.64000,425.05920
880.64000,425.05920 882.56000,423.72720
882.56000,423.72720 884.48000,422.38080
884.48000,422.38080 886.40000,421.02000
886.40000,421.02000 888.32000,419.64480
888.32000,419.64480 890.24000,418.25520
890.24000,418.25520 892.16000,416.85120
892.16000,416.85120 894.08000,415.43280
894.08000,415.43280 896.00000,414.00000
896.00000,414.00000 897.92000,412.55280
897.92000,412.55280 899.84000,411.09120
899.84000,411.09120 901.76000,409.61520
901.76000,409.61520 903.68000,408.12480
903.68000,408.12480 905.60000,406.62000
905.60000,406.62000 907.52000,405.10080
907.52000,405.10080 909.44000,403.56720
909.44000,403.56720 911.36000,402.01920
911.36000,402.01920 913.28000,400.45680
913.28000,400.45680 915.20000,398.88000
915.20000,398.88000 917.12000,397.28880
917.12000,397.28880 919.04000,395.68320
919.04000,395.68320 920.96000,394.06320
920.96000,394.06320 922.88000,392.42880
922.88000,392.42880 924.80000,390.78000
924.80000,390.78000 926.72000,389.11680
926.72000,389.11680 928.64000,387.43920
928.64000,387.43920 930.56000,385.74720
930.56000,385.74720 932.48000,384.04080
932.48000,384.04080 934.40000,382.32000
934.40000,382.32000 936.32000,380.58480
936.32000,380.58480 938.24000,378.83520
938.24000,378.83520 940.16000,377.07120
940.16000,377.07120 942.08000,375.29280
942.08000,375.29280 944.00000,373.50000
944.00000,373.50000 945.92000,371.69280
945.92000,371.69280 947.84000,369.87120
947.84000,369.87120 949.76000,368.03520
949.76000,368.03520 951.68000,366.18480
951.68000,366.18480 953.60000,364.32000
953.60000,364.32000 955.52000,362.44080
955.52000,362.44080 957.44000,360.54720
957.44000,360.54720 959.36000,358.63920
959.36000,358.63920 961.28000,356.71680
961.28000,356.71680 963.20000,354.78000
963.20000,354.78000 965.12000,352.82880
965.12000,352.82880 967.04000,350.86320
967.04000,350.86320 968.96000,348.88320
968.96000,348.88320 970.88000,346.88880
970.88000,346.88880 972.80000,344.88000
972.80000,344.88000 974.72000,342.85680
974.72000,342.85680 976.64000,340.81920
976.64000,340.81920 978.56000,338.76720
978.56000,338.76720 980.48000,336.70080
980.48000,336.70080 982.40000,334.62000
982.40000,334.62000 984.32000,332.52480
984.32000,332.52480 986.24000,330.41520
986.24000,330.41520 988.16000,328.29120
988.16000,328.29120 990.08000,326.15280
990.08000,326.15280 992.00000,324.00000
992.00000,324.00000 993.92000,321.83280
993.92000,321.83280 995.84000,319.65120
995.84000,319.65120 997.76000,317.45520
997.76000,317.45520 999.68000,315.24480
999.68000,315.24480 1001.60000,313.02000
1001.60000,313.02000 1003.52000,310.78080
1003.52000,310.78080 1005.44000,308.52720
1005.44000,308.52720 1007.36000,306.25920
1007.36000,306.25920 1009.28000,303.97680
1009.28000,303.97680 1011.20000,301.68000
1011.20000,301.68000 1013.12000,299.36880
1013.12000,299.36880 1015.04000,297.04320
1015.04000,297.04320 1016.96000,294.70320
1016.96000,294.70320 1018.88000,292.34880
1018.88000,292.34880 1020.80000,289.98000
1020.80000,289.98000 1022.72000,287.59680
1022.72000,287.59680 1024.64000,285.19920
1024.64000,285.19920 1026.56000,282.78720
1026.56000,282.78720 1028.48000,280.36080
1028.48000,280.36080 1030.40000,277.92000
1030.40000,277.92000 1032.32000,275.46480
1032.32000,275.46480 1034.24000,272.99520
1034.24000,272.99520 1036.16000,270.51120
1036.16000,270.51120 1038.08000,268.01280
1038.08000,268.01280 1040.00000,265.50000
1040.00000,265.50000 1041.92000,262.97280
1041.92000,262.97280 1043.84000,260.43120
1043.84000,260.43120 1045.76000,257.87520
1045.76000,257.87520 1047.68000,255.30480
1047.68000,255.30480 1049.60000,252.72000
1049.60000,252.72000 1051.52000,250.12080
1051.52000,250.12080 1053.44000,247.50720
1053.44000,247.50720 1055.36000,244.87920
1055.36000,244.87920 1057.28000,242.23680
1057.28000,242.23680 1059.20000,239.58000
1059.20000,239.58000 1061.12000,236.90880
1061.12000,236.90880 1063.04000,234.22320
1063.04000,234.22320 1064.96000,231.52320
1064.96000,231.52320 1066.88000,228.80880
1066.88000,228.80880 1068.80000,226.08000
1068.80000,226.08000 1070.72000,223.33680
1070.72000,223.33680 1072.64000,220.57920
1072.64000,220.57920 1074.56000,217.80720
1074.56000,217.80720 1076.48000,215.02080
1076.48000,215.02080 1078.40000,212.22000
1078.40000,212.22000 1080.32000,209.40480
1080.32000,209.40480 1082.24000,206.57520
1082.24000,206.57520 1084.16000,203.73120
1084.16000,203.73120 1086.08000,200.87280
1086.08000,200.87280 1088.00000,198.00000
1088.00000,198.00000 1089.92000,195.11280
1089.92000,195.11280 1091.84000,192.21120
1091.84000,192.21120 1093.76000,189.29520
1093.76000,189.29520 1095.68000,186.36480
1095.68000,186.36480 1097.60000,183.42000
1097.60000,183.42000 1099.52000,180.46080
1099.52000,180.46080 1101.44000,177.48720
1101.44000,177.48720 1103.36000,174.49920
1103.36000,174.49920 1105.28000,171.49680
1105.28000,171.49680 1107.20000,168.48000
1107.20000,168.48000 1109.12000,165.44880
1109.12000,165.44880 1111.04000,162.40320
1111.04000,162.40320 1112.96000,159.34320
1112.96000,159.34320 1114.88000,156.26880
1114.88000,156.26880 1116.80000,153.18000
1116.80000,153.18000 1118.72000,150.07680
1118.72000,150.07680 1120.64000,146.95920
1120.64000,146.95920 1122.56000,143.82720
1122.56000,143.82720 1124.48000,140.68080
1124.48000,140.68080 1126.40000,137.52000
1126.40000,137.52000 1128.32000,134.34480
1128.32000,134.34480 1130.24000,131.15520
1130.24000,131.15520 1132.16000,127.95120
1132.16000,127.95120 1134.08000,124.73280
1134.08000,124.73280 1136.00000,121.50000
1136.00000,121.50000 1137.92000,118.25280
1137.92000,118.25280 1139.84000,114.99120
1139.84000,114.99120 1141.76000,111.71520
1141.76000,111.71520 1143.68000,108.42480
1143.68000,108.42480 1145.60000,105.12000
1145.60000,105.12000 1147.52000,101.80080
1147.52000,101.80080 1149.44000,98.46720
1149.44000,98.46720 1151.36000,95.11920
1151.36000,95.11920 1153.28000,91.75680
1153.28000,91.75680 1155.20000,88.38000
1155.20000,88.38000 1157.12000,84.98880
1157.12000,84.98880 1159.04000,81.58320
1159.04000,81.58320 1160.96000,78.16320
1160.96000,78.16320 1162.88000,74.72880
1162.88000,74.72880 1164.80000,71.28000
1164.80000,71.28000 1166.72000,67.81680
1166.72000,67.81680 1168.64000,64.33920
1168.64000,64.33920 1170.56000,60.84720
1170.56000,60.84720 1172.48000,57.34080
1172.48000,57.34080 1174.40000,53.82000
1174.40000,53.82000 1176.32000,50.28480
1176.32000,50.28480 1178.24000,46.73520
1178.24000,46.73520 1180.16000,43.17120
1180.16000,43.17120 1182.08000,39.59280
1182.08000,39.59280 1184.00000,36.00000
" stroke="#000010" stroke-width="1.00000" fill="none" />
<rect x="0.00000" y="595.00000" width="1280.00000" height="125.00000" fill="#FFFFFF" stroke-width="1.00000" stroke="#FFFFFF" />
<rect x="0.00000" y="0.00000" width="1280.00000" height="55.00000" fill="#FFFFFF" stroke-width="1.00000" stroke="#FFFFFF" />
<rect x="0.00000" y="0.00000" width="224.00000" height="720.00000" fill="#FFFFFF" stroke-width="1.00000" stroke="#FFFFFF" />
<rect x="1184.00000" y="0.00000" width="96.00000" height="720.00000" fill="#FFFFFF" stroke-width="1.00000" stroke="#FFFFFF" />
<rect x="224.00000" y="54.00000" width="960.00000" height="540.00000" fill="none" stroke-width="1.00000" stroke="#000000" />
<line x1="704.00000" y1="594.00000" x2="704.00000" y2="54.00000" stroke-width="1.50000" stroke="#000077" />
<line x1="224.00000" y1="414.00000" x2="1184.00000" y2="414.00000" stroke-width="1.50000" stroke="#000077" />
<line x1="224.00000" y1="594.00000" x2="224.00000" y2="54.00000" stroke-width="0.25000" stroke="#0000AA" />
<text x="214.00000" y="619.00000" class="small" >-5.00000</text>
<line x1="320.00000" y1="594.00000" x2="320.00000" y2="54.00000" stroke-width="0.25000" stroke="#0000AA" />
<text x="310.00000" y="619.00000" class="small" >-4.00000</text>
<line x1="416.00000" y1="594.00000" x2="416.00000" y2="54.00000" stroke-width="0.25000" stroke="#0000AA" />
<text x="406.00000" y="619.00000" class="small" >-3.00000</text>
<line x1="512.00000" y1="594.00000" x2="512.00000" y2="54.00000" stroke-width="0.25000" stroke="#0000AA" />
<text x="502.00000" y="619.00000" class="small" >-2.00000</text>
<line x1="608.00000" y1="594.00000" x2="608.00000" y2="54.00000" stroke-width="0.25000" stroke="#0000AA" />
<text x="598.00000" y="619.00000" class="small" >-1.00000</text>
<line x1="704.00000" y1="594.00000" x2="704.00000" y2="54.00000" stroke-width="0.25000" stroke="#0000AA" />
<text x="694.00000" y="619.00000" class="small" >0.00000</text>
<line x1="800.00000" y1="594.00000" x2="800.00000" y2="54.00000" stroke-width="0.25000" stroke="#0000AA" />
<text x="790.00000" y="619.00000" class="small" >1.00000</text>
<line x1="896.00000" y1="594.00000" x2="896.00000" y2="54.00000" stroke-width="0.25000" stroke="#0000AA" />
<text x="886.00000" y="619.00000" class="small" >2.00000</text>
<line x1="992.00000" y1="594.00000" x2="992.00000" y2="54.00000" stroke-width="0.25000" stroke="#0000AA" />
<text x="982.00000" y="619.00000" class="small" >3.00000</text>
<line x1="1088.00000" y1="594.00000" x2="1088.00000" y2="54.00000" stroke-width="0.25000" stroke="#0000AA" />
<text x="1078.00000" y="619.00000" class="small" >4.00000</text>
<line x1="1184.00000" y1="594.00000" x2="1184.00000" y2="54.00000" stroke-width="0.25000" stroke="#0000AA" />
<text x="1174.00000" y="619.00000" class="small" >5.00000</text>
<line x1="224.00000" y1="558.00000" x2="1184.00000" y2="558.00000" stroke-width="0.25000" stroke="#0000AA" />
<text x="164.00000" y="563.00000" class="small" >-8.00000</text>
<line x1="224.00000" y1="486.00000" x2="1184.00000" y2="486.00000" stroke-width="0.25000" stroke="#0000AA" />
<text x="164.00000" y="491.00000" class="small" >-4.00000</text>
<line x1="224.00000" y1="414.00000" x2="1184.00000" y2="414.00000" stroke-width="0.25000" stroke="#0000AA" />
<text x="164.00000" y="419.00000" class="small" >0.00000</text>
<line x1="224.00000" y1="342.00000" x2="1184.00000" y2="342.00000" stroke-width="0.25000" stroke="#0000AA" />
<text x="164.00000" y="347.00000" class="small" >4.00000</text>
<line x1="224.00000" y1="270.00000" x2="1184.00000" y2="270.00000" stroke-width="0.25000" stroke="#0000AA" />
<text x="164.00000" y="275.00000" class="small" >8.00000</text>
<line x1="224.00000" y1="198.00000" x2="1184.00000" y2="198.00000" stroke-width="0.25000" stroke="#0000AA" />
<text x="164.00000" y="203.00000" class="small" >12.00000</text>
<line x1="224.00000" y1="126.00000" x2="1184.00000" y2="126.00000" stroke-width="0.25000" stroke="#0000AA" />
<text x="164.00000" y="131.00000" class="small" >16.00000</text>
<line x1="224.00000" y1="54.00000" x2="1184.00000" y2="54.00000" stroke-width="0.25000" stroke="#0000AA" />
<text x="164.00000" y="59.00000" class="small" >20.00000</text>
</svg>
